# xmcd
#
# Track frame offsets: 
#        150
#        15048
#        30344
#        47536
#        66873
#        79438
#        91411
#        101115
#        107182
#        126427
#        144176
#        158507
#        174525
#
# Disc length: 2497 seconds
#
# Revision: 0
# Processed by: cddbd v1.5.2PL0 Copyright (c) Steve Scherf et al.
# Submitted via: ExactAudioCopy v1.1
#
DISCID=9c09bf0d
DTITLE=Gregory Alan Isakov - The Weatherman
DYEAR=2013
DGENRE=Indie Folk-Blues
TTITLE0=Amsterdam
TTITLE1=Saint Valentine
TTITLE2=Second Chances
TTITLE3=Living Proof
TTITLE4=Time Will Tell
TTITLE5=O' City Lights
TTITLE6=Astronaut
TTITLE7=California Open Back
TTITLE8=The Universe
TTITLE9=Suitcase Full of Sparks
TTITLE10=Honey, It's Alright
TTITLE11=All Shades of Blue
TTITLE12=She Always Takes It Black
EXTD=
EXTT0=
EXTT1=
EXTT2=
EXTT3=
EXTT4=
EXTT5=
EXTT6=
EXTT7=
EXTT8=
EXTT9=
EXTT10=
EXTT11=
EXTT12=
PLAYORDER=
